<?xml version="1.0" standalone="no"?>
<!DOCTYPE svg PUBLIC "-//W3C//DTD SVG 20010904//EN"
 "http://www.w3.org/TR/2001/REC-SVG-20010904/DTD/svg10.dtd">
<svg version="1.0" xmlns="http://www.w3.org/2000/svg"
 width="109.000000pt" height="107.000000pt" viewBox="0 0 109.000000 107.000000"
 preserveAspectRatio="xMidYMid meet">
<metadata>
Created by potrace 1.16, written by Peter Selinger 2001-2019
</metadata>
<g transform="translate(0.000000,107.000000) scale(0.100000,-0.100000)"
fill="#000000" stroke="none">
<path d="M448 643 l-3 -318 -107 -3 c-61 -1 -108 -7 -108 -12 0 -16 69 -108
86 -114 9 -3 109 -6 223 -6 l207 0 45 29 c44 27 89 74 89 92 0 5 -89 10 -197
11 l-198 3 -2 300 c-1 274 0 296 13 250 48 -170 53 -348 14 -465 -26 -78 -26
-83 8 -67 85 44 224 46 340 6 35 -11 66 -19 69 -16 11 12 -20 115 -58 191 -93
186 -290 406 -364 406 -13 0 -25 7 -29 15 -3 8 -10 15 -16 15 -6 0 -11 -111
-12 -317z"/>
<path d="M345 573 c-43 -115 -80 -214 -83 -220 -3 -10 18 -13 87 -13 l91 0 0
220 c0 121 -4 220 -9 220 -5 0 -43 -93 -86 -207z"/>
</g>
</svg>
